inDegrees=yes
name=ik_data_2024_11_07_17_56
DataType=double
version=3
OpenSimVersion=4.5.1
endheader
time	pelvis_tilt	pelvis_list	pelvis_rotation	pelvis_tx	pelvis_ty	pelvis_tz	hip_flexion_r	hip_adduction_r	hip_rotation_r	knee_angle_r	knee_angle_r_beta	ankle_angle_r	subtalar_angle_r	mtp_angle_r	hip_flexion_l	hip_adduction_l	hip_rotation_l	knee_angle_l	knee_angle_l_beta	ankle_angle_l	subtalar_angle_l	mtp_angle_l	lumbar_extension	lumbar_bending	lumbar_rotation	arm_flex_r	arm_add_r	arm_rot_r	elbow_flex_r	pro_sup_r	wrist_flex_r	wrist_dev_r	arm_flex_l	arm_add_l	arm_rot_l	elbow_flex_l	pro_sup_l	wrist_flex_l	wrist_dev_l
0	-0.0164415768455746	0.001166171776854898	10.50728624092937	0	0.9399999999999999	0	0.2806597925001942	-0.01634932799364791	-0.07753206312211622	0.5140284425484866	0.008971488771369602	-3.599194769444729	0	0	0.2856434324998322	-0.002998895790165624	-0.0737458269408186	0.5131308694906236	0.008955823166232699	-3.599194769444729	0	0	0	0	0	0	-1.869497061431413	0	56.51520728075015	52.0534982697478	0	0	0	-1.869497061431413	0	56.51520728075015	52.0534982697478	0	0
0.04942	-0.0571767064269106	0.02688869621700287	10.76815081881289	0	0.9399999999999999	0	0.3148923884461508	-0.08857706217744171	-0.3432860070230101	0.5043227197680675	0.008802091952565471	-3.60123738265875	0	0	0.3203069637389164	0.02789463276213392	0.1884343089364557	0.5166529855051939	0.009017295687324173	-3.60123738265875	0	0	0	0	0	0	-1.871742187780151	0	56.52162766799475	52.04706111762292	0	0	0	-1.871742187780151	0	56.52162766799475	52.04706111762292	0	0
0.09341000000000001	-0.1139597372388241	0.03321115010714727	10.82888299115543	0	0.9399999999999999	0	0.3614715300102259	-0.1205153774216802	-0.4069286360745394	0.5230878771140096	0.009129605732906962	-3.602492803359498	0	0	0.3782697002103934	0.04442152409982175	0.2474242324582141	0.5224003051609971	0.009117605338482526	-3.602492803359498	0	0	0	0	0	0	-1.873384253027636	0	56.52608484700063	52.04293257249815	0	0	0	-1.873384253027636	0	56.52608484700063	52.04293257249815	0	0
0.14185	-0.08008709365903699	-0.003621707867117639	10.50165326198052	0	0.9399999999999999	0	0.3485016581042851	-0.1068523965546499	-0.09146067215748806	0.5741991423470498	0.01002166559608362	-3.60433165982023	0	0	0.3521739612234833	0.0001485280361768246	-0.08089576713058348	0.522744571103121	0.009123613912675068	-3.60433165982023	0	0	0	0	0	0	-1.875412592149112	0	56.53187233429747	52.03713760018505	0	0	0	-1.875412592149112	0	56.53187233429747	52.03713760018505	0	0
0.18507	-0.07574448529198732	0.04650492106103343	10.93878730890817	0	0.9399999999999999	0	0.3741679218206838	-0.1806696394698063	-0.5289638764557397	0.5693351225975511	0.009936772436572839	-3.606195122830584	0	0	0.3403649310934932	0.05157738452558094	0.3592819985939381	0.528477127750722	0.009223665900732793	-3.606195122830584	0	0	0	0	0	0	-1.877476808532708	0	56.53774985718207	52.03126265856076	0	0	0	-1.877476808532708	0	56.53774985718207	52.03126265856076	0	0
0.22856	-0.07446449854319798	0.04433059761414365	10.92800630962593	0	0.9399999999999999	0	0.3712213259966538	-0.1957050493008784	-0.5255432169458035	0.5706532720714806	0.009959778484926339	-3.606597240204012	0	0	0.3529656621580337	0.04450373646101408	0.349194173753134	0.545235454612559	0.009516153881597258	-3.606597240204012	0	0	0	0	0	0	-1.877960605401757	0	56.53910008323047	52.02996343134106	0	0	0	-1.877960605401757	0	56.53910008323047	52.02996343134106	0	0
0.27674	-0.1200321063148801	-0.002985184667814377	10.5486026080026	0	0.9399999999999999	0	0.4205611288119509	-0.1892941390829225	-0.1364897009055163	0.5523424141138613	0.009640193724700877	-3.608412071966082	0	0	0.3904438348865785	0.008429406448764182	-0.03341097592995409	0.5202252003038365	0.009079642597148951	-3.608412071966082	0	0	0	0	0	0	-1.879991087472854	0	56.54486075247491	52.02423011232039	0	0	0	-1.879991087472854	0	56.54486075247491	52.02423011232039	0	0
0.30972	-0.1255956247048484	0.003057035515730228	10.5848882367563	0	0.9399999999999999	0	0.448926845550693	-0.2282346980860058	-0.1774374635867735	0.5671258172656892	0.009898212784349983	-3.609387275451907	0	0	0.392297577822675	0.01673729209524169	0.001335245987181098	0.5136199724828876	0.008964359623829063	-3.609387275451907	0	0	0	0	0	0	-1.881066259786388	0	56.54793763756788	52.02114983705759	0	0	0	-1.881066259786388	0	56.54793763756788	52.02114983705759	0	0
0.35959	-0.1218976004640775	0.02215954152668455	10.72608869765463	0	0.9399999999999999	0	0.5006940102262489	-0.2574426507044839	-0.3223669290531784	0.5690398650519602	0.00993161922026092	-3.611039967034246	0	0	0.3846197610407665	0.03887423209993723	0.1486960889524015	0.5198756892211409	0.009073542477983703	-3.611039967034246	0	0	0	0	0	0	-1.882880911250195	0	56.5531322021605	52.0159388686042	0	0	0	-1.882880911250195	0	56.5531322021605	52.0159388686042	0	0
0.41114	-0.1383119338588713	0.01406799705977316	10.64266038285919	0	0.9399999999999999	0	0.6002865693684478	-0.2719234912048091	-0.246603738076324	0.6135742092026665	0.01070889015590702	-3.612586487244424	0	0	0.3947148780997924	0.03294317611971034	0.06512489340370524	0.5131052828646701	0.008955376595365334	-3.612586487244424	0	0	0	0	0	0	-1.8845756045719	0	56.55798939274047	52.0110624203859	0	0	0	-1.8845756045719	0	56.55798939274047	52.0110624203859	0	0
0.44384	-0.08825197499200164	0.03995733395722873	10.86927665147118	0	0.9399999999999999	0	0.5747159054184973	-0.3009625593651862	-0.4843632073968214	0.6659930732237986	0.01162377192323097	-3.614663889632264	0	0	0.3482134189795091	0.04674366659534604	0.289110464994506	0.5198973499444596	0.009073920528923978	-3.614663889632264	0	0	0	0	0	0	-1.886864288245248	0	56.56453119585809	52.00450890020443	0	0	0	-1.886864288245248	0	56.56453119585809	52.00450890020443	0	0
0.50137	-0.07394500840657794	0.008861848414467785	10.60877916174946	0	0.9399999999999999	0	0.5375377025582834	-0.2760010394003934	-0.21964678565287	0.6177270145170436	0.01078137028183722	-3.616511393114106	0	0	0.3452510824963338	0.01262961578433356	0.02683646983641227	0.5241728731279112	0.009148542485720558	-3.616511393114106	0	0	0	0	0	0	-1.88892008038148	0	56.57038810992798	51.99866703967737	0	0	0	-1.88892008038148	0	56.57038810992798	51.99866703967737	0	0
0.54595	-0.1413548977226741	0.02603445670369277	10.77897552223452	0	0.9399999999999999	0	0.5849306607433246	-0.3144332128818951	-0.3900215806820697	0.621186622404667	0.01084175183030422	-3.618324840022222	0	0	0.4112880666363716	0.04908881934145551	0.2005387411171047	0.5209515606383566	0.009092319976542215	-3.618324840022222	0	0	0	0	0	0	-1.890939943466255	0	56.57614630543569	51.99292683730216	0	0	0	-1.890939943466255	0	56.57614630543569	51.99292683730216	0	0
0.59232	-0.1674836398009948	0.06964000307146026	11.14851118044133	0	0.9399999999999999	0	0.6356039780227809	-0.3805189414412257	-0.762344515727708	0.6552730855941841	0.01143667284332114	-3.620293594287619	0	0	0.4241729648562911	0.09930910253450317	0.5705853610901094	0.5245278030917848	0.009154737182204137	-3.620293594287619	0	0	0	0	0	0	-1.893132480765379	0	56.58238896953709	51.98670176397108	0	0	0	-1.893132480765379	0	56.58238896953709	51.98670176397108	0	0
0.63171	-0.1669354645843022	-0.04902736416889467	10.05416041589329	0	0.9399999999999999	0	0.7583592659007314	-0.2518076439903162	0.323686244475516	0.6972417532399396	0.01216916427641479	-3.622122847278564	0	0	0.4333679136026232	-0.03130396894606954	-0.5243665172504393	0.5096240457776713	0.008894617546154671	-3.622122847278564	0	0	0	0	0	0	-1.895198377184894	0	56.58823953300951	51.98090280005601	0	0	0	-1.895198377184894	0	56.58823953300951	51.98090280005601	0	0
0.67754	-0.1280452243334886	-0.1066279506420521	9.536107428039294	0	0.9399999999999999	0	0.8292509958595179	-0.1581951999047142	0.831249192752861	0.7686010369978007	0.01341461872985437	-3.623911925860964	0	0	0.413620898513324	-0.09816297866545544	-1.046531402819202	0.5234262799427578	0.009135511976466681	-3.623911925860964	0	0	0	0	0	0	-1.897205702827385	0	56.59394175842568	51.97523506735448	0	0	0	-1.897205702827385	0	56.59394175842568	51.97523506735448	0	0
0.7244699999999999	-0.2255183763151084	-0.06490291142341971	9.921100122139503	0	0.9399999999999999	0	0.8800793256866054	-0.2053206156473776	0.4528224916009015	0.7354525111071395	0.01283606781087975	-3.625772209397544	0	0	0.4987907868743313	-0.04118129106546119	-0.6573730617972672	0.5288520829054375	0.009230210102729904	-3.625772209397544	0	0	0	0	0	0	-1.899291170849094	0	56.59986843775884	51.9693419912503	0	0	0	-1.899291170849094	0	56.59986843775884	51.9693419912503	0	0
0.76468	-0.2452096841002718	0.008504775474558957	10.63790150757627	0	0.9399999999999999	0	0.747003501911942	-0.2999321067170795	-0.2487471860319133	0.6883947068991896	0.01201475418869218	-3.627532567829315	0	0	0.5217752950978144	0.04345661065185322	0.05535074472763221	0.536361217438628	0.009361269224309285	-3.627532567829315	0	0	0	0	0	0	-1.901278036683422	0	56.60549984659675	51.96375871487324	0	0	0	-1.901278036683422	0	56.60549984659675	51.96375871487324	0	0
0.82696	-0.2516879775408981	0.05340571902352344	11.01323486036914	0	0.9399999999999999	0	0.5832823372060385	-0.3571296177857038	-0.6176722790001477	0.6569678769493156	0.01146625253260252	-3.629090385925481	0	0	0.5197235334439805	0.08805609892201147	0.430344902505916	0.543335677894605	0.00948299652281623	-3.629090385925481	0	0	0	0	0	0	-1.903023980770741	0	56.61046104712922	51.95882467088794	0	0	0	-1.903023980770741	0	56.61046104712922	51.95882467088794	0	0
0.86195	-0.3395559925398707	0.07532622187399875	11.24020989649989	0	0.9399999999999999	0	0.553843713753459	-0.4032939335157453	-0.8488502724951013	0.6263958970153184	0.01093267082390063	-3.630467412838912	0	0	0.6034844483063115	0.1360690205421626	0.6588511122744245	0.5333798929984848	0.00930923529675861	-3.630467412838912	0	0	0	0	0	0	-1.904569898750463	0	56.61485253338572	51.95446051368533	0	0	0	-1.904569898750463	0	56.61485253338572	51.95446051368533	0	0
0.90827	-0.3672568859414143	0.06666704239414062	11.08812005578209	0	0.9399999999999999	0	0.5248145422916678	-0.3908644462922274	-0.683876096833575	0.5748589671384098	0.01003318171117914	-3.632194543874693	0	0	0.6210650488602861	0.1245237446628067	0.5069096784812959	0.5229769242167538	0.009127669239535221	-3.632194543874693	0	0	0	0	0	0	-1.906509060535443	0	56.6203732319928	51.94897618795572	0	0	0	-1.906509060535443	0	56.6203732319928	51.94897618795572	0	0
0.94922	-0.430186214693662	0.02071549748773006	10.72012900671555	0	0.9399999999999999	0	0.5822264229374107	-0.3736841755624268	-0.3155691275854403	0.5624691959559707	0.009816939410476863	-3.634178239744311	0	0	0.6892893589775377	0.09100210345660277	0.138053588383828	0.5214755661846804	0.009101465598624276	-3.634178239744311	0	0	0	0	0	0	-1.908741130752871	0	56.62671521189686	51.94268050590721	0	0	0	-1.908741130752871	0	56.62671521189686	51.94268050590721	0	0
0.9955000000000001	-0.4079000827444515	-0.02385600964980107	10.30330426197209	0	0.9399999999999999	0	0.5861194373793915	-0.3168560813688669	0.09471381128352721	0.6041899135742943	0.01054510329921142	-3.636014269681012	0	0	0.6730041179981883	0.03858617596741851	-0.2788498563522672	0.5232087357072036	0.009131715113287526	-3.636014269681012	0	0	0	0	0	0	-1.910818689390156	0	56.63260788547338	51.93684523201526	0	0	0	-1.910818689390156	0	56.63260788547338	51.93684523201526	0	0
1.04278	-0.4406935069957623	-0.02208867569901139	10.31841832518308	0	0.9399999999999999	0	0.5791083864039743	-0.3255106046449641	0.07707911818766747	0.5994711750951396	0.01046274577620962	-3.636415299858936	0	0	0.7218204704255485	0.04149654201510269	-0.2703338239024634	0.5474162757621938	0.009554216391055513	-3.636415299858936	0	0	0	0	0	0	-1.911307063935736	0	56.63396770338269	51.93554320594917	0	0	0	-1.911307063935736	0	56.63396770338269	51.93554320594917	0	0
1.08632	-0.5215278591121137	-0.03596386680420084	10.22860028515916	0	0.9399999999999999	0	0.6599888415244132	-0.3788521638722487	0.1634406311670577	0.6103027675624995	0.01065179272799926	-3.637855978438499	0	0	0.7876772659511163	0.04627243833480045	-0.3482386440548404	0.5141318358743864	0.008973293325331142	-3.637855978438499	0	0	0	0	0	0	-1.912907145957518	0	56.63853727292277	51.93098111746455	0	0	0	-1.912907145957518	0	56.63853727292277	51.93098111746455	0	0
